<?xml version="1.0" encoding="utf-8"?>
<!-- Generator: Adobe Illustrator 16.0.3, SVG Export Plug-In . SVG Version: 6.00 Build 0)  -->
<!DOCTYPE svg PUBLIC "-//W3C//DTD SVG 1.1//EN" "http://www.w3.org/Graphics/SVG/1.1/DTD/svg11.dtd">
<svg version="1.1" id="Warstwa_1" xmlns="http://www.w3.org/2000/svg" xmlns:xlink="http://www.w3.org/1999/xlink" x="0px" y="0px"
	 width="578px" height="150px" viewBox="0 0 578 150" enable-background="new 0 0 578 150" xml:space="preserve">
<title>lexmotion_rgb_claim_red</title>
<desc>Created with Sketch.</desc>
<g>
	<g>
		<polygon fill="#193648" points="255.657,105.568 255.592,69.836 231.562,94.379 207.248,69.983 207.313,105.652 192.016,105.688 
			191.886,38.225 197.77,38.219 231.397,72.916 265.082,38.095 270.836,38.089 270.959,105.528 		"/>
		
			<rect x="386.758" y="63.883" transform="matrix(0.0019 1 -1 0.0019 491.208 -349.0865)" fill="#193648" width="67.451" height="15.302"/>
		<polygon fill="#193648" points="562.215,37.551 562.286,75.542 520.05,37.622 514.552,37.628 514.676,105.085 529.972,105.055 
			529.901,66.618 571.58,104.978 577.642,104.978 577.518,37.517 		"/>
		<polygon fill="#193648" points="161.594,105.741 147.179,84.961 132.843,105.8 113.889,105.837 136.798,73.099 112.789,38.473 
			130.933,38.444 146.055,59.872 161.101,38.386 179.24,38.349 156.424,71.515 180.54,105.711 		"/>
		<polygon fill="#193648" points="0.146,38.587 0.268,106.036 43.686,105.961 43.661,90.66 15.538,90.713 15.439,38.55 		"/>
		<polygon fill="#193648" points="368.492,105.357 368.386,50.316 349.897,50.357 349.878,37.94 403.708,37.841 403.733,50.252 
			383.689,50.299 383.789,105.327 		"/>
		<polygon fill="#193648" points="57.16,105.931 57.036,38.485 100.458,38.397 100.479,50.82 72.36,50.867 72.387,65.679 
			100.506,65.619 100.529,78.734 72.41,78.781 72.44,93.475 100.555,93.435 100.579,105.841 		"/>
		<path fill="#193648" d="M314.928,106.853c-19.341,0.042-35.104-15.666-35.14-35.013c-0.036-19.336,15.669-35.105,35.009-35.14
			c19.342-0.037,35.105,15.668,35.146,35.01C349.973,91.056,334.269,106.824,314.928,106.853 M314.822,50.425
			c-11.773,0.021-21.34,9.62-21.316,21.396c0.023,11.773,9.62,21.329,21.394,21.316c11.771-0.019,21.339-9.62,21.321-21.399
			C336.197,59.961,326.593,50.394,314.822,50.425"/>
		<path fill="#193648" d="M472.907,106.57c-19.341,0.028-35.11-15.673-35.14-35.021c-0.042-19.34,15.675-35.104,35.01-35.141
			c19.341-0.034,35.104,15.67,35.141,35.017C507.958,90.762,492.248,106.521,472.907,106.57 M472.807,50.134
			c-11.784,0.022-21.339,9.614-21.322,21.394c0.023,11.771,9.62,21.332,21.399,21.31c11.772-0.018,21.334-9.614,21.311-21.387
			C494.176,59.671,484.579,50.104,472.807,50.134"/>
		<polygon fill="#E63830" points="231.302,31.509 201.909,1.268 192.537,10.668 231.337,50.583 269.984,10.525 260.583,1.159 		"/>
	</g>
	<g>
		<path fill="#193648" d="M433.539,134.419h3.081v11.529h7.048v2.654h-10.129V134.419z"/>
		<path fill="#193648" d="M449.823,134.419h3.483l5.132,14.184h-3.288l-0.893-2.654h-5.387l-0.869,2.654h-3.306L449.823,134.419z
			 M449.64,143.578h3.832l-1.903-5.753h-0.042L449.64,143.578z"/>
		<path fill="#193648" d="M458.261,134.419h3.205l2.957,9.81h0.041l2.814-9.81h2.797l2.813,9.81h0.042l2.962-9.81h3.2l-4.477,14.184
			h-3.14l-2.779-9.626h-0.042l-2.796,9.626h-3.14L458.261,134.419z"/>
		<path fill="#193648" d="M546.718,145.455c1.135,0.589,2.412,0.991,3.688,0.991c1.964,0,3.259-0.809,3.259-2.165
			c0-1.36-1.177-1.848-2.838-1.848h-2.063v-2.247h1.986c1.579,0,2.472-0.548,2.472-1.884c0-0.995-0.893-1.766-2.495-1.766
			c-1.236,0-2.43,0.528-3.5,1.258l-1.378-1.984c1.454-0.995,3.033-1.663,5.127-1.663c3.156,0,5.309,1.539,5.309,3.868
			c0,1.523-0.792,2.456-2.069,3.043c1.703,0.71,2.531,1.783,2.531,3.383c0,2.917-2.898,4.399-6.263,4.399
			c-1.702,0-3.399-0.451-4.884-1.179L546.718,145.455z"/>
		<path fill="#193648" d="M558.561,145.496h3.081v3.099h-3.081V145.496z"/>
		<path fill="#193648" d="M562.972,141.649v-0.035c0-3.98,3.129-7.244,7.444-7.25c4.322-0.016,7.427,3.201,7.438,7.18v0.04
			c0.006,3.98-3.135,7.25-7.45,7.257C566.088,148.847,562.978,145.636,562.972,141.649 M574.632,141.639v-0.042
			c-0.006-2.407-1.768-4.405-4.252-4.405c-2.477,0.012-4.191,1.98-4.191,4.377v0.04c0.006,2.4,1.768,4.399,4.252,4.393
			C572.917,145.989,574.632,144.033,574.632,141.639"/>
		<g>
			<polygon fill="#193648" points="523.261,134.519 526.584,134.513 530.274,140.427 533.946,134.507 537.263,134.501 
				537.292,148.491 534.23,148.503 534.211,139.368 530.286,145.352 530.208,145.352 526.294,139.438 526.313,148.516 
				523.29,148.521 			"/>
			<polygon fill="#193648" points="501.165,134.507 504.251,134.501 504.27,145.701 504.234,148.497 501.195,148.51 			"/>
			<path fill="#193648" d="M507.698,134.525l6.403-0.024c1.78,0,3.158,0.497,4.08,1.413c0.787,0.786,1.206,1.881,1.206,3.198v0.043
				c0.006,2.259-1.206,3.684-2.986,4.34l3.431,5.002h-3.607l-2.997-4.47h-2.432l0.013,4.482l-3.081,0.012L507.698,134.525z
				 M513.919,141.308c1.496,0,2.353-0.81,2.353-1.981v-0.047c0-1.324-0.928-1.986-2.424-1.986h-3.058l0.006,4.015H513.919z"/>
			<polygon fill="#193648" points="487.968,134.519 497.724,134.501 497.73,137.238 491.036,137.257 491.042,140.09 
				495.535,140.083 495.541,142.821 491.048,142.833 491.055,148.497 488.003,148.516 			"/>
		</g>
	</g>
</g>
</svg>
