<?xml version="1.0" encoding="utf-8"?>
<!-- Generator: Adobe Illustrator 16.0.4, SVG Export Plug-In . SVG Version: 6.00 Build 0)  -->
<!DOCTYPE svg PUBLIC "-//W3C//DTD SVG 1.1//EN" "http://www.w3.org/Graphics/SVG/1.1/DTD/svg11.dtd">
<svg version="1.1" id="Layer_1" xmlns="http://www.w3.org/2000/svg" xmlns:xlink="http://www.w3.org/1999/xlink" x="0px" y="0px"
	 width="374.417px" height="43.271px" viewBox="0 0 374.417 43.271" enable-background="new 0 0 374.417 43.271"
	 xml:space="preserve">
<path fill="#26BFD5" d="M1.188,7.427"/>
<g>
	<g>
		<path fill="#FFFFFF" stroke="#FFFFFF" stroke-width="0.15" stroke-miterlimit="10" d="M278.764,22.999
			c0.112-0.072,0.277-0.146,0.504-0.224c0.224-0.079,0.482-0.118,0.773-0.118c0.363,0,0.688,0.065,0.971,0.195
			c0.283,0.129,0.521,0.312,0.717,0.546c0.194,0.233,0.342,0.514,0.442,0.839c0.101,0.324,0.151,0.682,0.151,1.072
			c0,0.409-0.061,0.777-0.18,1.105c-0.121,0.328-0.291,0.605-0.513,0.833c-0.222,0.229-0.487,0.404-0.801,0.527
			c-0.312,0.123-0.662,0.184-1.052,0.184c-0.424,0-0.797-0.027-1.121-0.085c-0.326-0.059-0.592-0.118-0.799-0.177v-7.264
			l0.904-0.155v2.721H278.764z M278.764,27.054c0.092,0.025,0.221,0.051,0.385,0.071c0.166,0.023,0.375,0.034,0.621,0.034
			c0.486,0,0.877-0.16,1.17-0.482c0.291-0.32,0.438-0.776,0.438-1.368c0-0.262-0.024-0.504-0.078-0.73
			c-0.053-0.228-0.137-0.426-0.254-0.592c-0.116-0.165-0.271-0.293-0.453-0.389c-0.186-0.095-0.407-0.144-0.667-0.144
			c-0.249,0-0.477,0.045-0.685,0.127c-0.208,0.086-0.365,0.172-0.478,0.265V27.054L278.764,27.054z"/>
		<path fill="#FFFFFF" stroke="#FFFFFF" stroke-width="0.15" stroke-miterlimit="10" d="M282.809,28.79
			c0.073,0.033,0.168,0.062,0.28,0.093c0.113,0.029,0.226,0.044,0.336,0.044c0.356,0,0.638-0.079,0.839-0.238
			c0.2-0.16,0.383-0.417,0.545-0.775c-0.408-0.779-0.791-1.605-1.146-2.479s-0.647-1.761-0.882-2.656h0.976
			c0.069,0.291,0.156,0.605,0.259,0.946c0.102,0.338,0.211,0.684,0.334,1.041c0.125,0.358,0.258,0.716,0.4,1.073
			c0.143,0.356,0.293,0.701,0.448,1.032c0.247-0.682,0.462-1.355,0.644-2.028c0.184-0.67,0.354-1.356,0.518-2.064h0.937
			c-0.233,0.953-0.493,1.872-0.778,2.752c-0.289,0.883-0.598,1.706-0.928,2.473c-0.13,0.294-0.266,0.545-0.404,0.756
			c-0.14,0.212-0.293,0.386-0.463,0.521c-0.171,0.136-0.357,0.237-0.57,0.304c-0.211,0.062-0.45,0.098-0.717,0.098
			c-0.07,0-0.146-0.007-0.225-0.017c-0.078-0.009-0.154-0.021-0.229-0.038c-0.075-0.017-0.145-0.035-0.207-0.054
			c-0.062-0.021-0.104-0.035-0.131-0.048L282.809,28.79z"/>
	</g>
	<g>
		<g>
			<path fill="#FFFFFF" d="M316.511,32.974h-0.774c-0.168,0-0.271-0.138-0.271-0.303v-5.427c0-1.29-0.557-1.47-1.352-1.47h-0.346
				c-0.957,0-1.289,0.166-1.289,1.02v5.877c0,0.165-0.104,0.303-0.267,0.303h-0.78c-0.166,0-0.272-0.138-0.272-0.303v-5.877
				c0-0.854-0.328-1.02-1.288-1.02h-0.346c-0.778,0-1.352,0.18-1.352,1.47v5.427c0,0.165-0.102,0.303-0.27,0.303h-0.778
				c-0.166,0-0.269-0.138-0.269-0.303v-5.427c0-1.546,0.869-2.622,2.666-2.622h0.347c0.899,0,1.483,0.116,1.948,0.539
				c0.451-0.393,1.05-0.539,1.949-0.539h0.346c1.799,0,2.668,1.076,2.668,2.622v5.427C316.783,32.838,316.68,32.974,316.511,32.974z
				"/>
			<path fill="#FFFFFF" d="M319.408,32.974h-0.721c-0.166,0-0.299-0.138-0.299-0.303v-7.645c0-0.166,0.133-0.301,0.299-0.301h0.721
				c0.162,0,0.301,0.135,0.301,0.301v7.645C319.709,32.838,319.57,32.974,319.408,32.974z M319.352,23.405h-0.765
				c-0.166,0-0.3-0.132-0.3-0.299v-1.199c0-0.166,0.134-0.298,0.3-0.298h0.765c0.164,0,0.299,0.132,0.299,0.298v1.199
				C319.648,23.273,319.516,23.405,319.352,23.405z"/>
			<path fill="#FFFFFF" d="M327.279,32.974h-0.777c-0.166,0-0.27-0.138-0.27-0.303v-5.351c0-1.124-0.283-1.563-1.305-1.563h-1.066
				c-1.018,0-1.303,0.439-1.303,1.563v5.351c0,0.165-0.104,0.303-0.271,0.303h-0.777c-0.166,0-0.271-0.138-0.271-0.303v-5.351
				c0-2.311,1.605-2.698,2.623-2.698h1.066c1.021,0,2.623,0.39,2.623,2.698v5.351C327.552,32.838,327.445,32.974,327.279,32.974z"/>
			<path fill="#FFFFFF" d="M333.871,25.882c-0.496-0.092-1.271-0.104-1.756-0.104c-1.469,0-1.947,0.915-1.947,2.519v1.08
				c0,1.633,0.464,2.547,1.947,2.547c0.51,0,1.246-0.043,1.756-0.088V25.882z M334.875,32.823c-0.934,0.179-1.846,0.256-2.76,0.256
				c-2.231,0-3.268-1.455-3.268-3.704v-1.08c0-2.353,1.078-3.671,3.268-3.671c0.467,0,1.17,0.043,1.756,0.146v-2.787
				c0-0.15,0.118-0.285,0.283-0.285h0.768c0.148,0,0.27,0.119,0.27,0.285v10.494C335.191,32.673,335.145,32.778,334.875,32.823z"/>
			<path fill="#FFFFFF" d="M343.168,25.089l-2.021,7.137c-0.195,0.675-0.707,0.854-1.352,0.854s-1.156-0.18-1.35-0.854l-2.023-7.137
				c-0.016-0.046-0.016-0.075-0.016-0.105c0-0.149,0.091-0.255,0.242-0.255h0.822c0.121,0,0.223,0.09,0.283,0.285l1.725,6.536
				c0.092,0.359,0.166,0.434,0.315,0.434c0.136,0,0.226-0.073,0.312-0.434l1.729-6.536c0.059-0.195,0.165-0.285,0.286-0.285h0.823
				c0.147,0,0.236,0.104,0.236,0.255C343.184,25.012,343.184,25.043,343.168,25.089z"/>
			<path fill="#FFFFFF" d="M348.564,28.985h-1.108c-0.451,0-0.824,0.025-1.124,0.083c-0.303,0.054-0.536,0.138-0.706,0.254
				c-0.17,0.115-0.289,0.266-0.358,0.449c-0.068,0.186-0.104,0.414-0.104,0.682v0.182c0,0.537,0.116,0.899,0.356,1.087
				s0.578,0.275,1.021,0.275c0.35,0,0.686-0.05,1.003-0.146c0.322-0.103,0.661-0.251,1.021-0.449V28.985L348.564,28.985z
				 M349.884,32.673c0,0.082-0.026,0.15-0.09,0.21c-0.06,0.062-0.13,0.093-0.21,0.093h-0.688c-0.082,0-0.15-0.031-0.211-0.093
				c-0.061-0.06-0.09-0.128-0.09-0.21v-0.328c-0.359,0.21-0.729,0.386-1.109,0.523c-0.379,0.14-0.778,0.211-1.199,0.211
				c-0.32,0-0.627-0.036-0.921-0.112c-0.296-0.072-0.558-0.209-0.779-0.399c-0.226-0.188-0.407-0.438-0.542-0.746
				c-0.137-0.312-0.199-0.703-0.199-1.17v-0.18c0-0.398,0.062-0.755,0.188-1.06c0.119-0.306,0.328-0.56,0.613-0.764
				c0.283-0.205,0.656-0.359,1.115-0.455c0.459-0.104,1.024-0.153,1.695-0.153h1.107v-0.6c0-0.629-0.117-1.068-0.357-1.318
				s-0.654-0.376-1.246-0.376c-0.488,0-0.919,0.013-1.287,0.038c-0.371,0.026-0.707,0.051-1.008,0.082h-0.074
				c-0.07,0-0.131-0.016-0.187-0.047c-0.058-0.029-0.083-0.096-0.083-0.193v-0.523c0-0.159,0.104-0.255,0.312-0.286
				c0.311-0.049,0.648-0.094,1.014-0.135c0.363-0.037,0.804-0.062,1.312-0.062c1.04,0,1.788,0.251,2.242,0.752
				c0.455,0.5,0.682,1.188,0.682,2.068L349.884,32.673L349.884,32.673z"/>
			<path fill="#FFFFFF" d="M352.521,32.974h-0.777c-0.148,0-0.271-0.138-0.271-0.303V21.983c0-0.15,0.104-0.285,0.271-0.285h0.777
				c0.152,0,0.271,0.119,0.271,0.285v10.688C352.793,32.823,352.688,32.974,352.521,32.974z"/>
			<path fill="#FFFFFF" d="M355.621,32.974h-0.78c-0.149,0-0.269-0.138-0.269-0.303V21.983c0-0.15,0.104-0.285,0.269-0.285h0.78
				c0.15,0,0.271,0.119,0.271,0.285v10.688C355.893,32.823,355.787,32.974,355.621,32.974z"/>
			<path fill="#FFFFFF" d="M362.629,28.131c0-1.692-0.646-2.354-1.965-2.354c-1.291,0-2.007,0.733-2.007,2.354v0.136h3.972V28.131z
				 M363.678,29.27h-5.021v0.211c0,1.784,0.702,2.439,2.084,2.439c0.866,0,1.979-0.059,2.668-0.161h0.071
				c0.123,0,0.244,0.061,0.244,0.208v0.51c0,0.194-0.062,0.301-0.302,0.346c-0.854,0.166-1.68,0.256-2.683,0.256
				c-1.725,0-3.406-0.811-3.406-3.598V28.13c0-2.144,1.186-3.507,3.329-3.507c2.19,0,3.3,1.379,3.3,3.507v0.812
				C363.964,29.135,363.859,29.27,363.678,29.27z"/>
			<path fill="#FFFFFF" d="M368.628,35.942c-1.108,0-2.129-0.166-2.472-0.256c-0.213-0.06-0.286-0.134-0.286-0.312v-0.422
				c0-0.149,0.122-0.252,0.271-0.252h0.045c0.448,0.057,1.573,0.179,2.441,0.179c1.354,0,1.77-0.331,1.77-1.903V32.9
				c-0.356,0.103-1.184,0.18-1.662,0.18c-1.723,0-3.358-0.602-3.358-3.104V25.03c0-0.166,0.136-0.301,0.3-0.301h0.721
				c0.166,0,0.299,0.135,0.299,0.301v4.946c0,1.604,0.779,1.98,2.041,1.98c0.436,0,1.199-0.093,1.635-0.194V25.03
				c0-0.166,0.133-0.301,0.298-0.301h0.722c0.164,0,0.299,0.135,0.299,0.301v7.946C371.688,35.328,370.668,35.942,368.628,35.942z"
				/>
		</g>
		<g>
			<path fill="#FFFFFF" d="M297.665,27.067c0,0-0.606,0.314-4.29-2.945c-3.688-3.266-5.898-6.254-5.898-6.254
				s7.301,0.602,8.972,2.528C297.458,21.567,297.665,27.067,297.665,27.067z"/>
			<path fill="#FFFFFF" d="M298.784,27.067c0,0,0.606,0.314,4.293-2.945c3.687-3.266,5.899-6.254,5.899-6.254
				s-7.306,0.602-8.976,2.528C298.99,21.567,298.784,27.067,298.784,27.067z"/>
			<path fill="#FFFFFF" d="M300.445,21.841c-0.989,0.899-1.547,3.347-1.647,4.929c-0.01,0.188-0.014,0.299-0.014,0.299
				s0.606,0.314,4.293-2.945c3.687-3.266,5.899-6.254,5.899-6.254S303.232,19.313,300.445,21.841z"/>
			<path fill="#FFFFFF" d="M300.445,21.841c2.787-2.526,8.531-3.973,8.531-3.973s-7.306,0.602-8.976,2.528
				c-0.869,1.005-1.144,5.213-1.204,6.372C298.898,25.186,299.456,22.74,300.445,21.841z"/>
			<path fill="#FFFFFF" d="M297.652,26.768c-0.102-1.586-0.656-4.028-1.647-4.929c-2.784-2.526-8.528-3.973-8.528-3.973
				s2.211,2.988,5.898,6.254c3.684,3.261,4.29,2.945,4.29,2.945S297.661,26.957,297.652,26.768z"/>
			<path fill="#FFFFFF" d="M297.652,26.768c-0.061-1.16-0.334-5.367-1.205-6.372c-1.67-1.928-8.973-2.528-8.973-2.528
				s5.745,1.445,8.529,3.973C296.996,22.74,297.552,25.182,297.652,26.768z"/>
		</g>
	</g>
</g>
<g>
	<g>
		<g>
			<g>
				<path fill="#268988" d="M21.648,11.059L11.506,29.188h10.247c0,2.156,0,3.5,0,5.654H2v-0.955l10.106-18.126H2.919
					c0-2.156,0-3.5,0-5.655h18.729V11.059z"/>
				<path fill="#36B6BE" d="M38.539,15.761c-3.675,0-5.513,0-9.152,0v3.498h8.41c0,1.873,0,3.745,0,5.617h-8.41
					c0,1.449,0,2.863,0,4.348c3.64,0,5.76,0,9.47,0c0,1.838,0,3.746,0,5.619c-5.795,0-10.036,0-15.761,0c0-8.268,0-16.537,0-24.736
					c5.725,0,9.648,0,15.443,0C38.539,11.943,38.539,13.852,38.539,15.761z"/>
				<path fill="#36B6BE" d="M48.008,22.688v12.154c-2.19,0-4.381,0-6.537,0V10h2.297l12.509,12.228V10.107c2.155,0,4.311,0,6.467,0
					v24.771h-2.262L48.008,22.688z"/>
				<path fill="#36B6BE" d="M63.769,15.761c0-1.909,0-3.783,0-5.655h18.375c0,1.872,0,3.746,0,5.655h-6.042v19.081
					c-2.085,0-4.169,0-6.255,0V15.761H63.769z"/>
				<path fill="#36B6BE" d="M104.123,33.925v0.918h-7.067l-4.24-7.279h-3.286v7.279c-2.121,0-4.276,0-6.326,0
					c0-8.234,0-16.466,0-24.736c3.569,0,7.244,0,10.849,0c9.718,0.033,11.485,11.734,5.23,15.972L104.123,33.925z M94.052,15.761
					c-1.484-0.036-3.04,0-4.523,0c0,2.014,0,4.204,0,6.183h4.523C97.479,21.944,97.657,15.796,94.052,15.761z"/>
				<path fill="#36B6BE" d="M120.555,15.761c-3.675,0-5.513,0-9.152,0v3.498h8.41c0,1.873,0,3.746,0,5.617h-8.41
					c0,1.449,0,2.863,0,4.348c3.639,0,5.76,0,9.47,0c0,1.838,0,3.746,0,5.619c-5.795,0-10.036,0-15.761,0c0-8.268,0-16.537,0-24.736
					c5.725,0,9.647,0,15.443,0C120.555,11.943,120.555,13.852,120.555,15.761z"/>
				<path fill="#36B6BE" d="M123.487,34.843c0-8.234,0-16.466,0-24.736c3.57,0,7.245,0,10.883,0c11.839,0.033,11.839,18.41,0,18.41
					h-4.558v6.326C127.692,34.843,125.572,34.843,123.487,34.843z M134.335,15.761c-1.484-0.036-3.074,0-4.523,0
					c0,2.014,0,5.052,0,7.067h4.523C137.799,22.829,138.011,15.796,134.335,15.761z"/>
				<path fill="#36B6BE" d="M166.068,33.925v0.918H159l-4.24-7.279h-3.287v7.279c-2.121,0-4.276,0-6.326,0
					c0-8.234,0-16.466,0-24.736c3.57,0,7.245,0,10.849,0c9.718,0.033,11.486,11.734,5.231,15.972L166.068,33.925z M155.997,15.761
					c-1.484-0.036-3.038,0-4.523,0c0,2.014,0,4.204,0,6.183h4.523C159.425,21.944,159.603,15.796,155.997,15.761z"/>
				<path fill="#36B6BE" d="M182.5,15.761c-3.675,0-5.513,0-9.153,0v3.498h8.411c0,1.873,0,3.746,0,5.617h-8.411
					c0,1.449,0,2.863,0,4.348c3.641,0,5.761,0,9.471,0c0,1.838,0,3.746,0,5.619c-5.796,0-10.036,0-15.76,0
					c0-8.268,0-16.537,0-24.736c5.724,0,9.647,0,15.442,0C182.5,11.943,182.5,13.852,182.5,15.761z"/>
				<path fill="#36B6BE" d="M191.969,22.688v12.154c-2.19,0-4.381,0-6.538,0V10h2.298l12.51,12.228V10.107c2.155,0,4.312,0,6.467,0
					v24.771h-2.263L191.969,22.688z"/>
				<path fill="#36B6BE" d="M225.61,15.761c-3.674,0-5.514,0-9.151,0v3.498h8.409c0,1.873,0,3.746,0,5.617h-8.409
					c0,1.449,0,2.863,0,4.348c3.638,0,5.76,0,9.469,0c0,1.838,0,3.746,0,5.619c-5.795,0-10.035,0-15.76,0c0-8.268,0-16.537,0-24.736
					c5.725,0,9.647,0,15.442,0C225.61,11.943,225.61,13.852,225.61,15.761z"/>
				<path fill="#36B6BE" d="M241.866,26.503V10.107c2.014,0,4.063,0,6.041,0v16.501c0,5.441-4.699,8.588-9.786,8.588
					c-5.055,0-9.824-3.146-9.824-8.588V10.107c1.979,0,4.062,0,6.041,0v16.396c0,2.014,1.945,3.004,3.783,3.004
					C239.958,29.507,241.866,28.516,241.866,26.503z"/>
				<path fill="#36B6BE" d="M272.114,33.925v0.918h-7.067l-4.239-7.279h-3.288v7.279c-2.121,0-4.276,0-6.326,0
					c0-8.234,0-16.466,0-24.736c3.569,0,7.244,0,10.85,0c9.718,0.033,11.485,11.734,5.229,15.972L272.114,33.925z M262.043,15.761
					c-1.484-0.036-3.04,0-4.523,0c0,2.014,0,4.204,0,6.183h4.523C265.471,21.944,265.647,15.796,262.043,15.761z"/>
			</g>
		</g>
	</g>
</g>
</svg>
