<?xml version="1.0" encoding="utf-8"?>
<!-- Generator: Adobe Illustrator 15.1.0, SVG Export Plug-In . SVG Version: 6.00 Build 0)  -->
<!DOCTYPE svg PUBLIC "-//W3C//DTD SVG 1.1//EN" "http://www.w3.org/Graphics/SVG/1.1/DTD/svg11.dtd">
<svg version="1.1" id="Layer_1" xmlns="http://www.w3.org/2000/svg" xmlns:xlink="http://www.w3.org/1999/xlink" x="0px" y="0px"
	 width="398.833px" height="46.5px" viewBox="0 0 398.833 46.5" enable-background="new 0 0 398.833 46.5" xml:space="preserve">
<g>
	<g>
		<path fill="#130C0E" d="M19.093,45.37V11.842l-1.064,7.717L13.971,45.37H9.513L5.322,19.559l-1.064-7.717V45.37H0V1.064h6.853
			l3.992,27.409l1.064,7.717l1.064-7.717l3.925-27.409h6.653V45.37H19.093z"/>
		<path fill="#130C0E" d="M41.18,45.37l-1.197-9.58h-6.12l-1.397,9.58h-4.524l6.72-44.305h4.989l6.454,44.305H41.18z M37.056,11.575
			l-2.595,19.757h4.923L37.056,11.575z"/>
		<path fill="#130C0E" d="M58.012,5.588V45.37h-4.724V5.588h-5.92V1.064h16.365v4.523H58.012z"/>
		<path fill="#130C0E" d="M68.258,45.37V1.064h14.103v4.457h-9.313V20.29h6.72v4.324h-6.72v16.299h9.313v4.457H68.258z"/>
		<path fill="#130C0E" d="M95.733,46.036c-4.856,0-8.382-3.459-8.382-8.914V1.064h4.79v36.323c0,2.727,1.197,4.125,3.659,4.125
			c2.461,0,3.658-1.398,3.658-4.125V1.064h4.657v36.057C104.116,42.577,100.523,46.036,95.733,46.036z"/>
		<path fill="#130C0E" d="M117.554,46.036c-5.189,0-8.449-3.592-8.449-8.715v-5.057h4.656v4.857c0,2.926,1.397,4.855,3.726,4.855
			c2.661,0,3.859-1.729,3.859-4.523c0-4.258-1.597-7.85-5.056-12.307c-3.127-3.993-6.787-9.913-6.787-15.102
			c0-5.521,2.728-9.646,8.383-9.646c4.79,0,7.916,3.593,7.916,8.781v5.256h-4.524V9.579c0-3.06-1.131-4.856-3.526-4.856
			c-2.328,0-3.591,1.464-3.591,4.059c0,4.723,1.663,7.717,5.588,12.906c3.857,4.989,6.252,9.645,6.252,14.702
			C126.002,43.442,121.612,46.036,117.554,46.036z"/>
		<path fill="#130C0E" d="M134.718,40.913h10.311v4.457h-15.633v-2.527l10.978-37.188h-10.378v-4.59h15.633v2.527L134.718,40.913z"
			/>
		<path fill="#77787B" d="M174.5,45.37l-1.197-4.057c-1.73,3.324-5.322,5.188-9.514,5.188c-8.781,0-13.239-6.053-13.239-12.904
			V12.839C150.551,6.253,155.807,0,165.253,0c9.447,0,14.237,5.92,14.237,12.839v3.326h-9.181v-3.593c0-2.461-1.463-4.59-4.989-4.59
			c-3.459,0-5.123,2.262-5.123,4.724v21.021c0,2.396,1.796,4.725,5.189,4.725c3.525,0,5.256-2.328,5.256-4.725v-4.59h-5.19v-6.519
			h14.237V45.37H174.5z"/>
		<path fill="#77787B" d="M210.625,45.637c-3.859,0-5.321-2.662-5.321-6.787v-7.252c0-2.326-1.198-4.322-3.926-4.322h-5.122V45.37
			h-9.514V1.064h15.967c7.184,0,11.508,4.124,11.508,10.511v4.79c0,3.592-1.729,6.319-5.721,7.384
			c3.992,0.931,5.921,4.259,5.921,7.318v7.252c0,2.061,0.665,3.459,1.862,4.523v2.795H210.625z M205.038,12.107
			c0-2.195-0.932-3.593-3.393-3.593h-5.389v12.175h4.989c2.462,0,3.792-1.265,3.792-3.926V12.107z"/>
		<path fill="#77787B" d="M231.651,37.122h15.832v8.248h-27.676v-2.66L236.506,8.98h-15.701V1.064h27.275v2.66L231.651,37.122z"/>
		<path fill="#77787B" d="M254.004,45.37V1.064h24.68v7.982h-15.168v9.713h10.445v7.184h-10.445v11.111h15.168v8.314H254.004z"/>
		<path fill="#77787B" d="M297.778,46.5c-8.715,0-14.236-4.988-14.236-12.572v-2.262h8.715v1.463c0,3.725,1.863,5.721,5.322,5.721
			c3.393,0,5.055-1.93,5.055-4.988c0-3.193-2.527-5.123-7.648-7.783c-5.322-2.862-10.979-6.387-10.979-13.173
			C284.006,6.12,288.864,0,297.911,0c8.115,0,13.504,5.455,13.504,12.506v1.797h-8.582v-1.397c0-2.993-1.662-5.321-4.988-5.321
			c-2.795,0-4.59,1.729-4.59,4.391c0,3.127,2.527,4.855,8.182,7.783c6.188,3.393,10.512,6.852,10.512,13.305
			C311.948,40.249,306.625,46.5,297.778,46.5z"/>
		<path fill="#77787B" d="M318.268,45.37V1.064h9.512V45.37H318.268z"/>
		<path fill="#77787B" d="M354.393,45.37l-1.863-8.781h-9.182l-1.861,8.781h-8.914L342.95,1.064h10.645l10.311,44.305H354.393z
			 M348.139,13.371l-3.393,16.167h6.52L348.139,13.371z"/>
		<path fill="#77787B" d="M388.854,45.37l-7.385-18.094l-3.26,5.387V45.37h-9.514V1.064h9.514v19.824l10.51-19.824h9.646
			l-10.311,18.627l10.777,25.678H388.854z"/>
	</g>
</g>
</svg>
