<svg id="Ebene_1" data-name="Ebene 1" xmlns="http://www.w3.org/2000/svg" viewBox="0 0 208 112.61"><defs><style>.cls-1,.cls-2{fill:#dc2820;}.cls-2{stroke:#848689;stroke-width:4.25px;}.cls-3{fill:#848689;}.cls-4{fill:#1d1d1b;}</style></defs><title>QoD_Logo_Vektor</title><path class="cls-1" d="M18.65,86.39V105s-0.11,3.33,2.83,3.33H30V107H29V85.29H23.93v1h1.25v19.13A1.34,1.34,0,0,1,23.71,107a1.28,1.28,0,0,1-1.34-1.34V85.24H17.74v1.12Z" transform="translate(0 -0.34)"/><path class="cls-1" d="M66.05,107.22V88.57s0.15-3.24-2.85-3.42a7.25,7.25,0,0,0-4,.76V85.24H54.65v1.34l1.19,0v20.28l-1.34,0,0,1.44h6.4v-1.18l-1.4,0V88.16A1.34,1.34,0,0,1,61,86.66,1.28,1.28,0,0,1,62.33,88v20.36H67v-1.12Z" transform="translate(0 -0.34)"/><path class="cls-1" d="M167.54,107.22V88.57s0.15-3.24-2.85-3.42a7.25,7.25,0,0,0-4,.76V85.24h-4.55v1.34l1.19,0v20.28l-1.35,0,0,1.44h6.4v-1.18l-1.4,0V88.16a1.34,1.34,0,0,1,1.47-1.51A1.28,1.28,0,0,1,163.81,88v20.36h4.65v-1.12Z" transform="translate(0 -0.34)"/><path class="cls-1" d="M179.71,103.72v-2.89h-3.62V106c0,1.29-1.47,1.07-1.47,1.07a1.09,1.09,0,0,1-1.34-1.07V97.74h6.42l0-8.38c0-5-5.13-4.74-5.13-4.74-5.17,0-4.9,3.95-4.9,3.95v16.09c0,4.46,4.85,3.92,4.85,3.92C180.14,108.59,179.71,103.72,179.71,103.72Zm-5.15-17.45s1.44-.11,1.44.95l0,8.46h-2.74V87.35a1,1,0,0,1,1.25-1.08h0Z" transform="translate(0 -0.34)"/><path class="cls-1" d="M88.86,104.66V88.06c0-3.68-5.62-3.63-5.62-3.63-5,0-5.14,3.3-5.14,3.3v17.16c0,3.74,4.46,3.6,4.46,3.6l1.69,0C89.29,108.46,88.86,104.66,88.86,104.66Zm-5.4,2.08a1.15,1.15,0,0,1-1.32-1.32V87.7a1.24,1.24,0,0,1,1.26-1.44,1.39,1.39,0,0,1,1.54,1.39v17.56a1.34,1.34,0,0,1-1.48,1.52h0Z" transform="translate(0 -0.34)"/><path class="cls-1" d="M94.4,80.58v4.55H95.9v1.31H94.4v20.48h1.45v1.38h-6.3V107H91V86.43H89.6V85.09h1.72v-4S91,77.5,97,77.5v1.34S94.4,78.84,94.4,80.58Z" transform="translate(0 -0.34)"/><path class="cls-1" d="M130.44,106.77v-18c0-4.48-4.71-4.36-4.71-4.36a4,4,0,0,0-4.36,4.08v3.5h3.21V88a1.07,1.07,0,0,1,1.09-1.21A1,1,0,0,1,126.93,88v6.49c-6.38,0-6,4.25-6,4.25v5.4c0,4.48,2.76,4.08,2.76,4.08h7.52v-1.44h-0.8Zm-3.5-.28s-2.3.69-2.3-1V97.58s-0.17-1.72,2.3-1.72v10.63Z" transform="translate(0 -0.34)"/><path class="cls-1" d="M132,85.29v1.09h1.09v20.39h-0.92v1.32h6.15v-1.32h-1.15V87.35a0.86,0.86,0,0,1,1-1,0.83,0.83,0,0,1,1,1v5h3.74V88.6s0.6-3.88-3.4-3.88a4.11,4.11,0,0,0-2.94,1V85.2Z" transform="translate(0 -0.34)"/><path class="cls-1" d="M147.83,77.49h-4.44v1.29h0.86v28h-1.12v1.25h5.47V107h-0.9V98.17l3,10h4.16V107h-1.11l-3.66-12.57s-0.52-.27.27-2l2.87-6.17h1.09v-1.1h-3.5v1h0.69l-3.85,7.47Z" transform="translate(0 -0.34)"/><path class="cls-1" d="M190.94,92.41h-3.25v-4a1.43,1.43,0,0,0-1.47-1.52,1.26,1.26,0,0,0-1.47,1.47v2a5.58,5.58,0,0,0,1.37,3.76l2.28,2.33s2.54,2.44,2.54,5.08v2.18s0,5.23-4.11,5.23H185.5s-4.37.41-4.37-6v-2h3.5v4.27a1.7,1.7,0,0,0,1.67,1.63s1.07-.1,1.07-1.68v-2.85a7.57,7.57,0,0,0-2.28-4.42l-2.84-3A6.58,6.58,0,0,1,181,90.63s-0.36-5.79,4.88-5.79C185.91,84.85,190.94,84.39,190.94,92.41Z" transform="translate(0 -0.34)"/><path class="cls-1" d="M202.45,92.41H199.2v-4a1.43,1.43,0,0,0-1.47-1.52,1.26,1.26,0,0,0-1.47,1.47v2a5.58,5.58,0,0,0,1.37,3.76l2.28,2.33s2.54,2.44,2.54,5.08v2.18s0,5.23-4.11,5.23H197s-4.36.4-4.36-6v-2h3.5v4.27a1.7,1.7,0,0,0,1.67,1.63s1.07-.1,1.07-1.68v-2.85a7.57,7.57,0,0,0-2.28-4.42l-2.84-3a6.58,6.58,0,0,1-1.22-4.21s-0.36-5.79,4.88-5.79C197.42,84.85,202.45,84.39,202.45,92.41Z" transform="translate(0 -0.34)"/><path class="cls-1" d="M16.31,103.64V82.44c0-4.51-5.62-4.45-5.62-4.45-5,0-5.14,4-5.14,4v21.88c0,4.59,4.44,4.42,4.44,4.42v3.88a0.68,0.68,0,0,0,.83.73,0.75,0.75,0,0,0,.86-0.78v-3.88A4.22,4.22,0,0,0,16.31,103.64Zm-5.83-1.24a0.44,0.44,0,0,0-.46.53v4.31a1,1,0,0,1-.86-0.86V79.83S9,79,10.68,79c0,0,1.75-.09,1.75.95V106a0.94,0.94,0,0,1-.73,1.16v-4.15S11.87,102.32,10.48,102.4Z" transform="translate(0 -0.34)"/><path class="cls-1" d="M41.26,103.72v-2.89H37.64V106c0,1.29-1.47,1.07-1.47,1.07A1.09,1.09,0,0,1,34.84,106V97.74h6.42l0-8.38c0-5-5.13-4.74-5.13-4.74-5.17,0-4.91,4-4.91,4v16.09c0,4.46,4.85,3.92,4.85,3.92C41.69,108.59,41.26,103.72,41.26,103.72ZM36.11,86.28s1.44-.12,1.44,1l0,8.46H34.86V87.35a1,1,0,0,1,1.25-1.08h0Z" transform="translate(0 -0.34)"/><path class="cls-1" d="M53.58,103.72v-2.89H50V106c0,1.29-1.47,1.07-1.47,1.07A1.09,1.09,0,0,1,47.16,106V97.74h6.42l0-8.38c0-5-5.13-4.74-5.13-4.74-5.17,0-4.91,4-4.91,4v16.09c0,4.46,4.85,3.92,4.85,3.92C54,108.59,53.58,103.72,53.58,103.72ZM48.43,86.28s1.44-.11,1.44.95l0,8.46H47.17V87.35a1,1,0,0,1,1.25-1.08h0Z" transform="translate(0 -0.34)"/><path class="cls-1" d="M112.81,77.53h-5.74v1.32h1.55v27.86h-1.49v1.44h7s4.65,0.57,4.65-5.11V82.87S119.18,77.53,112.81,77.53Zm2.41,4.59v21.31c0,4.36-3.27,3.33-3.27,3.33V78.85c3.68,0,3.28,3.27,3.28,3.27h0Z" transform="translate(0 -0.34)"/><circle class="cls-2" cx="104" cy="43.91" r="24.19"/><path class="cls-3" d="M183.22,8.45C180.15,8.16,174,8.1,174,8.1c-7.73-.12-9-1.3-9-1.3-4.55-1.89-.38-6.46-0.38-6.46-3,1.95-2.66,4-2.66,4a0.8,0.8,0,0,0-1,.8c-14.69-1.86-33,11.23-33,11.23a1.51,1.51,0,0,0-.77-1.83c-1.6.06-1.53,1-1.53,1-4.42-1.18-8.14,7.14-8.14,7.14,3.24-5,6.84-4.48,6.84-4.48a1.48,1.48,0,0,1-.06-1.12c0.59-.71.94-0.35,0.94-0.35,1.71,0.89.47,3.42,0.47,3.42-5.72,10.26-11.5,14.39-11.5,14.39-3.54,3.11-5.25,1.41-5.25,1.41-1-.83-1.3-3.78-1.3-3.78L108.49,30a2.81,2.81,0,0,0,.35-1.07c-0.35-1.36,1.3-3.13,1.3-3.13A3.44,3.44,0,0,0,106,28.93a4.42,4.42,0,0,0-2,.94h0a4.42,4.42,0,0,0-2-.94,3.44,3.44,0,0,0-4.13-3.13s1.65,1.77,1.3,3.13A2.81,2.81,0,0,0,99.51,30l0.77,2.18S100,35.12,99,36c0,0-1.71,1.7-5.25-1.41,0,0-5.78-4.13-11.5-14.39,0,0-1.24-2.54.47-3.42,0,0,.35-0.35.94,0.35a1.48,1.48,0,0,1-.06,1.12s3.6-.47,6.84,4.48c0,0-3.72-8.32-8.14-7.14,0,0,.06-0.94-1.53-1A1.51,1.51,0,0,0,80,16.37S61.7,3.27,47,5.14a0.8,0.8,0,0,0-.78-0.82L46,4.34s0.35-2-2.66-4c0,0,4.16,4.57-.38,6.46,0,0-1.24,1.18-9,1.3,0,0-6.19.06-9.26,0.35,0,0-17.17,1.36-24.77,11.33,0,0,13.57-11.56,33.21,1.71,0,0,13.1,9.73,12,16.1a9.87,9.87,0,0,0-1.77,5.66,8.81,8.81,0,0,1,1.68-3.45s0.71,0.53.89-.89c0,0,14.78-4.78,22,5.49,0,0-.89,1.07-0.44,1.68a6.05,6.05,0,0,0,.71,4.42,10.46,10.46,0,0,1,.09-3.81,1.09,1.09,0,0,0,.53-1.5s10.35-4.87,17,8.41c0,0,8.41-2.92,11,6.11,0,0,4.84-4,7,4.68L104,64.76v0h0c2.12-9.11,7.08-5,7.08-5,2.57-9,11-6.11,11-6.11,6.64-13.27,17-8.41,17-8.41a1.09,1.09,0,0,0,.53,1.5,10.47,10.47,0,0,1,.09,3.81,6,6,0,0,0,.71-4.42c0.44-.62-0.44-1.68-0.44-1.68,7.26-10.26,22-5.49,22-5.49,0.18,1.41.89,0.89,0.89,0.89a8.83,8.83,0,0,1,1.68,3.45,9.87,9.87,0,0,0-1.77-5.66c-1.07-6.37,12-16.1,12-16.1C194.43,8.23,208,19.79,208,19.79,200.39,9.81,183.22,8.45,183.22,8.45Z" transform="translate(0 -0.34)"/><path class="cls-4" d="M127.4,18.42C127.05,20.08,121,28.57,121,28.57c-5.19,6.49-9.39,8.32-9.39,8.32-3.41.83-3.89-1.86-3.89-1.86s-0.8-.94-0.47-3.19a21.68,21.68,0,0,0,1-2.72,3.21,3.21,0,0,1,.19-1.45,3.32,3.32,0,0,1,.84-1.49,3.11,3.11,0,0,0-2.85,3.23,3.12,3.12,0,0,0-2.43,1.1h0a3.12,3.12,0,0,0-2.43-1.1,3.11,3.11,0,0,0-2.85-3.23,3.32,3.32,0,0,1,.84,1.49,3.21,3.21,0,0,1,.19,1.45,21.67,21.67,0,0,0,1,2.72c0.33,2.24-.47,3.19-0.47,3.19s-0.49,2.67-3.89,1.86c0,0-4.2-1.83-9.39-8.32,0,0-6-8.49-6.37-10.15A36.11,36.11,0,0,0,69,44.26s11.8-3.66,17.12,8.38c0,0,8.73-2.12,11.09,6,0,0,4.74-2.36,6.76,3.58l0,0.1,0-.11c2-5.93,6.75-3.57,6.75-3.57,2.36-8.14,11.09-6,11.09-6,5.31-12,17.12-8.38,17.12-8.38A36.16,36.16,0,0,0,127.4,18.42Z" transform="translate(0 -0.34)"/><path class="cls-3" d="M103.46,32.07s-0.61-2.06-2.29-2.29A3.2,3.2,0,0,0,99.9,27.3a3.87,3.87,0,0,1,.51,2.67A5,5,0,0,1,103.46,32.07Z" transform="translate(0 -0.34)"/><path class="cls-3" d="M103.46,35a3.71,3.71,0,0,0-.06,2.3s-0.71.47-.71-2.41A0.56,0.56,0,0,1,103.46,35Z" transform="translate(0 -0.34)"/><path class="cls-3" d="M102.53,34.14a3,3,0,0,1-1.39-1.32s-0.7.14,1,1.85A0.51,0.51,0,0,0,102.53,34.14Z" transform="translate(0 -0.34)"/><path class="cls-1" d="M103.55,32.52A4.79,4.79,0,0,1,102,31.31s-0.31-.19-0.29.21a1.28,1.28,0,0,0,1.41,1.39,0.94,0.94,0,0,0,.41-0.29C103.57,32.55,103.55,32.52,103.55,32.52Z" transform="translate(0 -0.34)"/><path class="cls-4" d="M79.75,17.12S59.34,3.2,46.83,5.8a2.12,2.12,0,0,1-1.18.35S44.47,7.8,38.92,8.63c0,0-7.08.35-9,.24,0,0-16.52.71-26.55,8.26a26.73,26.73,0,0,1,21.83-.94S43.17,23.49,46.12,36.7C46.12,36.71,58.39,18.31,79.75,17.12Z" transform="translate(0 -0.34)"/><path class="cls-4" d="M80.22,18.07s-19.47-.71-33.74,19.7c0,0,15.45-3.54,21.71,5.55C68.18,43.32,69.37,27.15,80.22,18.07Z" transform="translate(0 -0.34)"/><path class="cls-3" d="M104.52,32.07s0.61-2.06,2.29-2.29a3.2,3.2,0,0,1,1.26-2.48,3.87,3.87,0,0,0-.51,2.67A5,5,0,0,0,104.52,32.07Z" transform="translate(0 -0.34)"/><path class="cls-3" d="M104.51,35a3.71,3.71,0,0,1,.06,2.3s0.71,0.47.71-2.41A0.56,0.56,0,0,0,104.51,35Z" transform="translate(0 -0.34)"/><path class="cls-3" d="M105.45,34.14a3,3,0,0,0,1.39-1.32s0.7,0.14-1,1.85A0.49,0.49,0,0,1,105.45,34.14Z" transform="translate(0 -0.34)"/><path class="cls-1" d="M104.43,32.52A4.79,4.79,0,0,0,106,31.31s0.31-.19.29,0.21a1.28,1.28,0,0,1-1.41,1.39,0.94,0.94,0,0,1-.41-0.29C104.41,32.55,104.43,32.52,104.43,32.52Z" transform="translate(0 -0.34)"/><path class="cls-4" d="M128.23,17.12S148.64,3.2,161.14,5.8a2.12,2.12,0,0,0,1.18.35S163.5,7.8,169,8.63c0,0,7.08.35,9,.24,0,0,16.52.71,26.55,8.26a26.73,26.73,0,0,0-21.83-.94S164.8,23.49,161.85,36.7C161.85,36.71,149.58,18.31,128.23,17.12Z" transform="translate(0 -0.34)"/><path class="cls-4" d="M127.76,18.07s19.47-.71,33.74,19.7c0,0-15.45-3.54-21.71,5.55C139.79,43.32,138.61,27.15,127.76,18.07Z" transform="translate(0 -0.34)"/></svg>